<?xml version="1.0" encoding="UTF-8"?>
<!DOCTYPE svg PUBLIC "-//W3C//DTD SVG 1.1//EN" "http://www.w3.org/Graphics/SVG/1.1/DTD/svg11.dtd">
<svg xmlns="http://www.w3.org/2000/svg" version="1.1" width="268px" height="334px" style="shape-rendering:geometricPrecision; text-rendering:geometricPrecision; image-rendering:optimizeQuality; fill-rule:evenodd; clip-rule:evenodd" xmlns:xlink="http://www.w3.org/1999/xlink">
<g><path style="opacity:1" fill="#121212" d="M 186.5,46.5 C 186.973,47.9063 187.973,48.573 189.5,48.5C 193.215,51.6067 196.215,55.2733 198.5,59.5C 198.427,61.0269 199.094,62.0269 200.5,62.5C 200.427,64.0269 201.094,65.0269 202.5,65.5C 207.251,72.4092 210.251,80.0758 211.5,88.5C 211.777,91.4475 211.444,94.2809 210.5,97C 211.992,98.9912 212.992,101.158 213.5,103.5C 214.326,107.982 214.826,112.649 215,117.5C 215.904,120.233 217.404,122.567 219.5,124.5C 221.993,126.584 224.66,126.917 227.5,125.5C 228.919,124.549 230.585,124.216 232.5,124.5C 230.934,129.888 227.267,133.055 221.5,134C 219.231,134.758 217.064,134.591 215,133.5C 215.387,147.028 210.72,158.361 201,167.5C 200.079,181.412 206.579,187.746 220.5,186.5C 223.012,186.423 225.012,187.423 226.5,189.5C 225.5,190.167 224.5,190.833 223.5,191.5C 223.709,192.086 224.043,192.586 224.5,193C 220.539,193.404 216.872,194.57 213.5,196.5C 212.282,197.803 212.615,198.803 214.5,199.5C 212.498,202.515 210.165,204.515 207.5,205.5C 208.612,206.265 209.279,207.265 209.5,208.5C 207.737,212.099 205.07,214.932 201.5,217C 196.793,219.735 191.793,221.568 186.5,222.5C 182.995,222.694 182.662,223.694 185.5,225.5C 185.936,227.746 186.603,229.913 187.5,232C 186.551,232.617 185.718,232.451 185,231.5C 183.983,234.028 182.816,234.028 181.5,231.5C 180.818,232.243 180.151,232.909 179.5,233.5C 178.791,232.596 177.791,232.263 176.5,232.5C 176.5,236.167 176.5,239.833 176.5,243.5C 175.657,251.026 173.991,258.36 171.5,265.5C 170.833,267.5 170.167,269.5 169.5,271.5C 168.778,271.082 168.278,270.416 168,269.5C 167.107,270.711 166.274,270.711 165.5,269.5C 166.855,268.325 166.688,267.325 165,266.5C 163.553,268.403 161.886,270.07 160,271.5C 158.091,270.441 156.591,268.441 155.5,265.5C 165.43,258.369 168.764,249.036 165.5,237.5C 164.448,237.351 163.448,237.517 162.5,238C 158.871,241.631 154.704,244.464 150,246.5C 135.938,233.935 121.438,221.935 106.5,210.5C 108.95,208.102 111.95,206.436 115.5,205.5C 120.053,207.272 124.719,208.772 129.5,210C 134.444,210.873 139.11,210.373 143.5,208.5C 149.28,207.624 154.614,205.457 159.5,202C 171.753,192.001 179.253,179.167 182,163.5C 183.328,155.545 184.161,147.545 184.5,139.5C 185.164,137.022 185.497,134.355 185.5,131.5C 185.478,128.41 184.812,125.743 183.5,123.5C 179.905,121.898 176.571,119.898 173.5,117.5C 169.197,114.029 165.364,110.029 162,105.5C 156.899,96.9628 152.066,88.2962 147.5,79.5C 135.503,108.486 113.836,124.486 82.5,127.5C 82.5,131.167 82.5,134.833 82.5,138.5C 81.9645,143.258 81.7978,147.925 82,152.5C 81.6667,152.167 81.3333,151.833 81,151.5C 79.5248,155.155 78.1915,154.822 77,150.5C 76.6174,151.056 76.1174,151.389 75.5,151.5C 74.0708,145.969 72.7375,140.302 71.5,134.5C 68.4392,134.444 66.2725,135.778 65,138.5C 64.3219,142.221 64.4886,145.888 65.5,149.5C 64.1785,152.154 64.1785,154.821 65.5,157.5C 65.2295,159.693 64.2295,161.359 62.5,162.5C 55.9756,155.939 52.9756,147.939 53.5,138.5C 53.5,136.833 53.5,135.167 53.5,133.5C 51.1667,133.5 48.8333,133.5 46.5,133.5C 41.8871,133.067 38.0537,131.067 35,127.5C 34.3828,126.551 34.5494,125.718 35.5,125C 37.3869,124.22 39.0536,124.387 40.5,125.5C 43.0118,126.867 45.3452,126.534 47.5,124.5C 49.5136,122.817 51.1802,120.817 52.5,118.5C 53.29,117.391 53.79,116.058 54,114.5C 54.4996,107.842 54.6663,101.175 54.5,94.5C 54.5,93.8333 54.5,93.1667 54.5,92.5C 56.4354,88.1051 57.7687,83.4385 58.5,78.5C 59.3764,74.4179 61.0431,70.7512 63.5,67.5C 64.9063,67.0269 65.573,66.0269 65.5,64.5C 66.3403,62.1475 67.6736,60.1475 69.5,58.5C 71.2624,57.7377 72.2624,56.4044 72.5,54.5C 88.3958,34.868 108.729,27.5347 133.5,32.5C 153.768,27.368 171.435,32.0346 186.5,46.5 Z M 198.5,155.5 C 197.094,155.973 196.427,156.973 196.5,158.5C 195.206,159.29 194.039,160.29 193,161.5C 192.517,160.552 192.351,159.552 192.5,158.5C 194.071,152.716 195.238,146.716 196,140.5C 196.756,135.017 198.756,134.351 202,138.5C 202.577,144.524 201.411,150.191 198.5,155.5 Z"/></g>
<g><path style="opacity:0.02" fill="#9e9e9e" d="M 186.5,46.5 C 188.027,46.427 189.027,47.0937 189.5,48.5C 187.973,48.573 186.973,47.9063 186.5,46.5 Z"/></g>
<g><path style="opacity:0.184" fill="#8e8e8e" d="M 72.5,54.5 C 72.2624,56.4044 71.2624,57.7377 69.5,58.5C 69.7376,56.5956 70.7376,55.2623 72.5,54.5 Z"/></g>
<g><path style="opacity:0.173" fill="#838383" d="M 198.5,59.5 C 199.906,59.9731 200.573,60.9731 200.5,62.5C 199.094,62.0269 198.427,61.0269 198.5,59.5 Z"/></g>
<g><path style="opacity:0.141" fill="#8b8b8b" d="M 200.5,62.5 C 201.906,62.9731 202.573,63.9731 202.5,65.5C 201.094,65.0269 200.427,64.0269 200.5,62.5 Z"/></g>
<g><path style="opacity:0.149" fill="#838383" d="M 65.5,64.5 C 65.573,66.0269 64.9063,67.0269 63.5,67.5C 63.427,65.9731 64.0937,64.9731 65.5,64.5 Z"/></g>
<g><path style="opacity:0.525" fill="#777777" d="M 58.5,78.5 C 57.7687,83.4385 56.4354,88.1051 54.5,92.5C 54.9205,87.4713 56.2538,82.8047 58.5,78.5 Z"/></g>
<g><path style="opacity:1" fill="#fcfcfc" d="M 161.5,110.5 C 165.537,138.632 162.87,166.132 153.5,193C 150.752,196.412 148.419,200.079 146.5,204C 146.833,204.333 147.167,204.667 147.5,205C 145.676,205.66 144.343,206.827 143.5,208.5C 139.11,210.373 134.444,210.873 129.5,210C 124.719,208.772 120.053,207.272 115.5,205.5C 101.289,197.437 92.1224,185.437 88,169.5C 85.7989,159.259 84.2989,148.925 83.5,138.5C 83.5,136.833 83.5,135.167 83.5,133.5C 106.8,132.984 125.633,123.651 140,105.5C 142.107,100.159 144.774,95.1586 148,90.5C 151.941,97.5964 156.441,104.263 161.5,110.5 Z"/></g>
<g><path style="opacity:0.29" fill="#454545" d="M 211.5,88.5 C 213.031,93.2502 213.698,98.2502 213.5,103.5C 212.992,101.158 211.992,98.9912 210.5,97C 211.444,94.2809 211.777,91.4475 211.5,88.5 Z"/></g>
<g><path style="opacity:0.447" fill="#656464" d="M 54.5,94.5 C 54.6663,101.175 54.4996,107.842 54,114.5C 53.79,116.058 53.29,117.391 52.5,118.5C 52.3232,110.284 52.9899,102.284 54.5,94.5 Z"/></g>
<g><path style="opacity:1" fill="#cacaca" d="M 161.5,110.5 C 164.715,112.299 167.382,114.799 169.5,118C 170.819,118.195 172.153,118.028 173.5,117.5C 176.571,119.898 179.905,121.898 183.5,123.5C 184.449,128.74 184.782,134.073 184.5,139.5C 184.161,147.545 183.328,155.545 182,163.5C 179.253,179.167 171.753,192.001 159.5,202C 154.614,205.457 149.28,207.624 143.5,208.5C 144.343,206.827 145.676,205.66 147.5,205C 147.167,204.667 146.833,204.333 146.5,204C 148.419,200.079 150.752,196.412 153.5,193C 162.87,166.132 165.537,138.632 161.5,110.5 Z"/></g>
<g><path style="opacity:1" fill="#bfbfbf" d="M 173.5,117.5 C 172.153,118.028 170.819,118.195 169.5,118C 167.382,114.799 164.715,112.299 161.5,110.5C 156.441,104.263 151.941,97.5964 148,90.5C 144.774,95.1586 142.107,100.159 140,105.5C 125.633,123.651 106.8,132.984 83.5,133.5C 83.5,135.167 83.5,136.833 83.5,138.5C 83.1667,138.5 82.8333,138.5 82.5,138.5C 82.5,134.833 82.5,131.167 82.5,127.5C 113.836,124.486 135.503,108.486 147.5,79.5C 152.066,88.2962 156.899,96.9628 162,105.5C 165.364,110.029 169.197,114.029 173.5,117.5 Z"/></g>
<g><path style="opacity:0.216" fill="#7c7c7c" d="M 47.5,124.5 C 45.3452,126.534 43.0118,126.867 40.5,125.5C 42.861,125.326 45.1944,124.993 47.5,124.5 Z"/></g>
<g><path style="opacity:0.263" fill="#8f8f8f" d="M 219.5,124.5 C 222.167,124.833 224.833,125.167 227.5,125.5C 224.66,126.917 221.993,126.584 219.5,124.5 Z"/></g>
<g><path style="opacity:1" fill="#868686" d="M 183.5,123.5 C 184.812,125.743 185.478,128.41 185.5,131.5C 185.497,134.355 185.164,137.022 184.5,139.5C 184.782,134.073 184.449,128.74 183.5,123.5 Z"/></g>
<g><path style="opacity:0.024" fill="#d4d4d4" d="M 46.5,133.5 C 48.8333,133.5 51.1667,133.5 53.5,133.5C 53.5,135.167 53.5,136.833 53.5,138.5C 52.5655,137.432 52.2322,136.099 52.5,134.5C 50.2646,134.795 48.2646,134.461 46.5,133.5 Z"/></g>
<g><path style="opacity:1" fill="#f0eff0" d="M 75.5,151.5 C 75.9086,155.264 75.9086,158.93 75.5,162.5C 70.9465,159.038 67.6131,154.704 65.5,149.5C 64.4886,145.888 64.3219,142.221 65,138.5C 66.2725,135.778 68.4392,134.444 71.5,134.5C 72.7375,140.302 74.0708,145.969 75.5,151.5 Z"/></g>
<g><path style="opacity:0.133" fill="#868686" d="M 198.5,155.5 C 198.573,157.027 197.906,158.027 196.5,158.5C 196.427,156.973 197.094,155.973 198.5,155.5 Z"/></g>
<g><path style="opacity:0.078" fill="#959595" d="M 192.5,158.5 C 192.351,159.552 192.517,160.552 193,161.5C 194.039,160.29 195.206,159.29 196.5,158.5C 196.033,161.297 194.367,162.631 191.5,162.5C 191.232,160.901 191.566,159.568 192.5,158.5 Z"/></g>
<g><path style="opacity:1" fill="#2e2e2e" d="M 209.5,208.5 C 209.279,207.265 208.612,206.265 207.5,205.5C 210.165,204.515 212.498,202.515 214.5,199.5C 212.615,198.803 212.282,197.803 213.5,196.5C 216.872,194.57 220.539,193.404 224.5,193C 224.043,192.586 223.709,192.086 223.5,191.5C 224.5,190.833 225.5,190.167 226.5,189.5C 225.012,187.423 223.012,186.423 220.5,186.5C 222.608,184.941 224.941,183.608 227.5,182.5C 229.045,188.928 227.045,194.095 221.5,198C 219.044,199.711 216.377,201.044 213.5,202C 212.432,204.438 211.098,206.605 209.5,208.5 Z"/></g>
<g><path style="opacity:0.055" fill="#929292" d="M 186.5,222.5 C 185.89,223.391 185.557,224.391 185.5,225.5C 182.662,223.694 182.995,222.694 186.5,222.5 Z"/></g>
<g><path style="opacity:1" fill="#f9f9f9" d="M 129.5,272.5 C 114.304,270.471 104.97,261.971 101.5,247C 102.99,241.262 103.657,235.429 103.5,229.5C 104.314,227.369 104.814,225.036 105,222.5C 118.809,237.125 129.309,253.792 136.5,272.5C 134.167,272.5 131.833,272.5 129.5,272.5 Z"/></g>
<g><path style="opacity:0.2" fill="#828282" d="M 82.5,222.5 C 83.2389,222.369 83.9056,222.536 84.5,223C 83.3365,225.328 81.6698,227.162 79.5,228.5C 80.5,226.5 81.5,224.5 82.5,222.5 Z"/></g>
<g><path style="opacity:1" fill="#b7b7b7" d="M 106.5,210.5 C 121.438,221.935 135.938,233.935 150,246.5C 154.704,244.464 158.871,241.631 162.5,238C 163.448,237.517 164.448,237.351 165.5,237.5C 168.764,249.036 165.43,258.369 155.5,265.5C 149.009,270.409 141.676,273.076 133.5,273.5C 131.955,273.489 130.622,273.156 129.5,272.5C 131.833,272.5 134.167,272.5 136.5,272.5C 129.309,253.792 118.809,237.125 105,222.5C 104.814,225.036 104.314,227.369 103.5,229.5C 103.17,222.8 103.503,216.134 104.5,209.5C 105.183,209.863 105.85,210.196 106.5,210.5 Z"/></g>
<g><path style="opacity:0.224" fill="#787878" d="M 192.5,232.5 C 194.833,234.167 196.833,236.167 198.5,238.5C 195.5,237.5 193.5,235.5 192.5,232.5 Z"/></g>
<g><path style="opacity:0.738" fill="#363636" d="M 211.5,243.5 C 217.879,245.067 223.879,247.4 229.5,250.5C 227.856,250.286 226.356,250.62 225,251.5C 224.255,250.01 223.088,249.01 221.5,248.5C 218.804,249.621 216.137,249.621 213.5,248.5C 214.782,246.101 214.115,244.434 211.5,243.5 Z"/></g>
<g><path style="opacity:0.964" fill="#fbfbfb" d="M 93.5,311.5 C 94.7635,313.43 96.4301,315.097 98.5,316.5C 100.812,313.543 102.312,310.209 103,306.5C 103.561,305.978 104.228,305.645 105,305.5C 110.856,310.255 116.023,315.589 120.5,321.5C 120.5,324.5 120.5,327.5 120.5,330.5C 120.5,330.833 120.5,331.167 120.5,331.5C 96.5068,332.424 72.5068,332.424 48.5,331.5C 48.5,331.167 48.5,330.833 48.5,330.5C 48.5,325.833 48.5,321.167 48.5,316.5C 45.9633,310.066 43.13,303.732 40,297.5C 39.3333,296.167 38.6667,296.167 38,297.5C 36.8906,302.056 36.3906,306.722 36.5,311.5C 36.7226,318.177 37.056,324.844 37.5,331.5C 31.3471,332.653 25.0137,332.82 18.5,332C 15.3337,331.678 12.667,330.511 10.5,328.5C 9.05629,308.277 13.8896,289.61 25,272.5C 29.2991,267.195 34.4658,263.028 40.5,260C 49.087,256.527 57.7537,253.361 66.5,250.5C 67.1154,256.069 68.6154,261.403 71,266.5C 78.5133,281.527 86.0133,296.527 93.5,311.5 Z"/></g>
<g><path style="opacity:0.482" fill="#555555" d="M 229.5,250.5 C 233.976,251.657 237.642,253.99 240.5,257.5C 237.554,255.369 234.221,254.369 230.5,254.5C 230.567,253.041 230.234,251.708 229.5,250.5 Z"/></g>
<g><path style="opacity:0.95" fill="#f9f9f9" d="M 214.5,255.5 C 214.082,256.222 213.416,256.722 212.5,257C 214.487,259.47 214.987,262.303 214,265.5C 210.971,274.587 207.971,283.587 205,292.5C 198.697,305.361 191.864,317.861 184.5,330C 195.008,330.17 205.341,330.67 215.5,331.5C 193.205,331.624 170.539,331.624 147.5,331.5C 147.5,331.167 147.5,330.833 147.5,330.5C 147.5,328.167 147.5,325.833 147.5,323.5C 148.317,321.031 148.817,318.365 149,315.5C 149.333,315.833 149.667,316.167 150,316.5C 150.442,314.321 151.442,313.655 153,314.5C 154,313.5 155,312.5 156,311.5C 155.667,309.833 155.333,308.167 155,306.5C 156.154,305.257 157.488,304.257 159,303.5C 161.188,300.433 163.355,297.433 165.5,294.5C 168.719,300.271 171.386,306.271 173.5,312.5C 174.375,315.987 176.375,318.321 179.5,319.5C 180.922,316.308 182.089,312.975 183,309.5C 187.37,303.428 190.703,296.761 193,289.5C 194.574,288.016 195.907,286.349 197,284.5C 201.164,275.199 205.331,265.865 209.5,256.5C 211.071,255.691 212.738,255.357 214.5,255.5 Z"/></g>
<g><path style="opacity:0.208" fill="#8c8c8c" d="M 242.5,258.5 C 244.914,259.911 246.581,261.911 247.5,264.5C 245.086,263.089 243.419,261.089 242.5,258.5 Z"/></g>
<g><path style="opacity:0.247" fill="#757575" d="M 26.5,257.5 C 23.5,261.167 20.1667,264.5 16.5,267.5C 18.8333,263.167 22.1667,259.833 26.5,257.5 Z"/></g>
<g><path style="opacity:0.133" fill="#777777" d="M 247.5,264.5 C 249.587,265.585 250.92,267.251 251.5,269.5C 249.413,268.415 248.08,266.749 247.5,264.5 Z"/></g>
<g><path style="opacity:0.11" fill="#acacac" d="M 13.5,271.5 C 13.573,273.027 12.9063,274.027 11.5,274.5C 11.427,272.973 12.0937,271.973 13.5,271.5 Z"/></g>
<g><path style="opacity:0.947" fill="#3d3d3d" d="M 11.5,274.5 C 11.3279,278.534 10.8279,282.534 10,286.5C 9.66667,285.833 9.33333,285.167 9,284.5C 7.81111,286.233 6.64444,287.9 5.5,289.5C 6.7042,284.105 8.7042,279.105 11.5,274.5 Z"/></g>
<g><path style="opacity:1" fill="#dedede" d="M 214.5,255.5 C 223.757,258.213 231.924,262.88 239,269.5C 239.464,270.094 239.631,270.761 239.5,271.5C 238.863,275.455 240.363,278.122 244,279.5C 244.273,281.329 245.107,282.829 246.5,284C 243.696,284.988 242.029,286.488 241.5,288.5C 240.139,286.972 238.972,285.305 238,283.5C 237.308,284.025 236.808,284.692 236.5,285.5C 238.117,289.244 236.783,291.244 232.5,291.5C 230.929,290.691 229.262,290.357 227.5,290.5C 227.477,292.927 226.977,295.26 226,297.5C 222.118,303.359 219.284,309.692 217.5,316.5C 217.5,321.167 217.5,325.833 217.5,330.5C 220.167,330.5 222.833,330.5 225.5,330.5C 234.533,330.716 243.533,330.383 252.5,329.5C 251.737,330.268 250.737,330.768 249.5,331C 238.172,331.5 226.838,331.667 215.5,331.5C 205.341,330.67 195.008,330.17 184.5,330C 191.864,317.861 198.697,305.361 205,292.5C 207.971,283.587 210.971,274.587 214,265.5C 214.987,262.303 214.487,259.47 212.5,257C 213.416,256.722 214.082,256.222 214.5,255.5 Z"/></g>
<g><path style="opacity:1" fill="#131313" d="M 82.5,138.5 C 82.8333,138.5 83.1667,138.5 83.5,138.5C 84.2989,148.925 85.7989,159.259 88,169.5C 92.1224,185.437 101.289,197.437 115.5,205.5C 111.95,206.436 108.95,208.102 106.5,210.5C 105.85,210.196 105.183,209.863 104.5,209.5C 103.503,216.134 103.17,222.8 103.5,229.5C 103.657,235.429 102.99,241.262 101.5,247C 104.97,261.971 114.304,270.471 129.5,272.5C 130.622,273.156 131.955,273.489 133.5,273.5C 141.676,273.076 149.009,270.409 155.5,265.5C 156.591,268.441 158.091,270.441 160,271.5C 161.886,270.07 163.553,268.403 165,266.5C 166.688,267.325 166.855,268.325 165.5,269.5C 166.274,270.711 167.107,270.711 168,269.5C 168.278,270.416 168.778,271.082 169.5,271.5C 168.014,276.433 168.681,281.099 171.5,285.5C 172.048,287.394 173.048,289.06 174.5,290.5C 182.514,277.616 188.514,263.783 192.5,249C 192.333,248.167 192.167,247.333 192,246.5C 187.63,242.298 183.463,237.964 179.5,233.5C 180.151,232.909 180.818,232.243 181.5,231.5C 182.816,234.028 183.983,234.028 185,231.5C 185.718,232.451 186.551,232.617 187.5,232C 186.603,229.913 185.936,227.746 185.5,225.5C 188.167,227.5 190.5,229.833 192.5,232.5C 193.5,235.5 195.5,237.5 198.5,238.5C 202.837,240.386 207.17,242.053 211.5,243.5C 214.115,244.434 214.782,246.101 213.5,248.5C 216.137,249.621 218.804,249.621 221.5,248.5C 223.088,249.01 224.255,250.01 225,251.5C 226.356,250.62 227.856,250.286 229.5,250.5C 230.234,251.708 230.567,253.041 230.5,254.5C 234.221,254.369 237.554,255.369 240.5,257.5C 241.167,257.833 241.833,258.167 242.5,258.5C 243.419,261.089 245.086,263.089 247.5,264.5C 248.08,266.749 249.413,268.415 251.5,269.5C 261.11,283.598 265.276,299.265 264,316.5C 262.477,320.893 259.977,324.56 256.5,327.5C 256.725,309.227 252.558,291.894 244,275.5C 242.629,273.959 241.129,272.625 239.5,271.5C 239.631,270.761 239.464,270.094 239,269.5C 231.924,262.88 223.757,258.213 214.5,255.5C 210.817,254.042 207.15,252.375 203.5,250.5C 195.134,271.901 185.134,292.568 173.5,312.5C 171.386,306.271 168.719,300.271 165.5,294.5C 165.013,293.527 164.513,292.527 164,291.5C 159.776,299.057 154.776,306.057 149,312.5C 147.663,316.026 147.163,319.692 147.5,323.5C 147.5,325.833 147.5,328.167 147.5,330.5C 144.5,330.5 141.5,330.5 138.5,330.5C 138.267,325.105 138.6,319.772 139.5,314.5C 139.5,314.167 139.5,313.833 139.5,313.5C 139.372,311.345 139.872,309.345 141,307.5C 151.297,297.901 157.63,286.234 160,272.5C 152.036,278.965 144.87,286.298 138.5,294.5C 140.694,299.393 139.194,302.393 134,303.5C 127.492,302.602 125.992,299.435 129.5,294C 123.439,286.062 116.606,278.896 109,272.5C 109.389,277.654 110.723,282.654 113,287.5C 117.274,294.772 121.941,301.772 127,308.5C 128.136,310.743 128.97,313.076 129.5,315.5C 130.445,320.405 130.779,325.405 130.5,330.5C 127.167,330.5 123.833,330.5 120.5,330.5C 120.5,327.5 120.5,324.5 120.5,321.5C 120.663,319.143 120.497,316.81 120,314.5C 114.277,307.109 108.944,299.443 104,291.5C 101.652,298.042 98.8185,304.376 95.5,310.5C 95.0431,311.298 94.3764,311.631 93.5,311.5C 86.0133,296.527 78.5133,281.527 71,266.5C 68.6154,261.403 67.1154,256.069 66.5,250.5C 57.7537,253.361 49.087,256.527 40.5,260C 34.4658,263.028 29.2991,267.195 25,272.5C 13.8896,289.61 9.05629,308.277 10.5,328.5C 9.83333,328.5 9.5,328.167 9.5,327.5C 8.11822,325.451 6.45155,323.785 4.5,322.5C 3.44153,321.4 2.6082,320.066 2,318.5C 1.05584,311.25 1.55584,304.25 3.5,297.5C 5.03954,295.162 5.70621,292.495 5.5,289.5C 6.64444,287.9 7.81111,286.233 9,284.5C 9.33333,285.167 9.66667,285.833 10,286.5C 10.8279,282.534 11.3279,278.534 11.5,274.5C 12.9063,274.027 13.573,273.027 13.5,271.5C 13.7376,269.596 14.7376,268.262 16.5,267.5C 20.1667,264.5 23.5,261.167 26.5,257.5C 30.3873,254.136 34.7207,251.303 39.5,249C 49.5,245.333 59.5,241.667 69.5,238C 72.7025,234.629 76.0359,231.462 79.5,228.5C 81.6698,227.162 83.3365,225.328 84.5,223C 83.9056,222.536 83.2389,222.369 82.5,222.5C 68.9696,221.799 59.8029,215.133 55,202.5C 45.53,199.542 40.3633,193.209 39.5,183.5C 43.3395,185.083 47.3395,186.083 51.5,186.5C 62.7928,185.277 67.9595,178.943 67,167.5C 65.2927,165.963 63.7927,164.296 62.5,162.5C 64.2295,161.359 65.2295,159.693 65.5,157.5C 64.1785,154.821 64.1785,152.154 65.5,149.5C 67.6131,154.704 70.9465,159.038 75.5,162.5C 75.9086,158.93 75.9086,155.264 75.5,151.5C 76.1174,151.389 76.6174,151.056 77,150.5C 78.1915,154.822 79.5248,155.155 81,151.5C 81.3333,151.833 81.6667,152.167 82,152.5C 81.7978,147.925 81.9645,143.258 82.5,138.5 Z"/></g>
<g><path style="opacity:1" fill="#ececec" d="M 171.5,285.5 C 168.681,281.099 168.014,276.433 169.5,271.5C 170.167,269.5 170.833,267.5 171.5,265.5C 172.712,264.77 173.712,263.77 174.5,262.5C 174.833,263.167 175.167,263.833 175.5,264.5C 174.738,271.471 174.238,278.471 174,285.5C 173.23,286.598 172.397,286.598 171.5,285.5 Z"/></g>
<g><path style="opacity:1" fill="#c8c8ca" d="M 90.5,232.5 C 91.2218,239.035 92.0551,245.702 93,252.5C 95.4288,260.391 97.9288,268.224 100.5,276C 99.4996,279.834 97.8329,283.334 95.5,286.5C 97.9309,278.074 96.7642,270.074 92,262.5C 91.231,257.822 90.3977,253.155 89.5,248.5C 90.3436,243.2 90.6769,237.866 90.5,232.5 Z"/></g>
<g><path style="opacity:1" fill="#cacaca" d="M 179.5,233.5 C 183.463,237.964 187.63,242.298 192,246.5C 192.167,247.333 192.333,248.167 192.5,249C 188.514,263.783 182.514,277.616 174.5,290.5C 173.048,289.06 172.048,287.394 171.5,285.5C 172.397,286.598 173.23,286.598 174,285.5C 174.238,278.471 174.738,271.471 175.5,264.5C 175.167,263.833 174.833,263.167 174.5,262.5C 173.712,263.77 172.712,264.77 171.5,265.5C 173.991,258.36 175.657,251.026 176.5,243.5C 176.881,239.881 177.881,236.548 179.5,233.5 Z"/></g>
<g><path style="opacity:1" fill="#f6f6f7" d="M 90.5,232.5 C 90.6769,237.866 90.3436,243.2 89.5,248.5C 90.3977,253.155 91.231,257.822 92,262.5C 96.7642,270.074 97.9309,278.074 95.5,286.5C 95.6882,288.103 95.1882,289.437 94,290.5C 86.9495,276.834 80.7828,262.834 75.5,248.5C 76.0909,246.734 76.9242,245.067 78,243.5C 82.3856,239.939 86.5523,236.273 90.5,232.5 Z"/></g>
<g><path style="opacity:1" fill="#646464" d="M 179.5,233.5 C 177.881,236.548 176.881,239.881 176.5,243.5C 176.5,239.833 176.5,236.167 176.5,232.5C 177.791,232.263 178.791,232.596 179.5,233.5 Z"/></g>
<g><path style="opacity:1" fill="#efeeef" d="M 139.5,313.5 C 136.198,314.294 132.865,314.96 129.5,315.5C 128.97,313.076 128.136,310.743 127,308.5C 121.941,301.772 117.274,294.772 113,287.5C 110.723,282.654 109.389,277.654 109,272.5C 116.606,278.896 123.439,286.062 129.5,294C 125.992,299.435 127.492,302.602 134,303.5C 139.194,302.393 140.694,299.393 138.5,294.5C 144.87,286.298 152.036,278.965 160,272.5C 157.63,286.234 151.297,297.901 141,307.5C 139.872,309.345 139.372,311.345 139.5,313.5 Z"/></g>
<g><path style="opacity:1" fill="#e4e4e6" d="M 128.5,281.5 C 132.182,281.335 135.848,281.501 139.5,282C 137.542,284.748 135.709,287.582 134,290.5C 131.642,287.778 129.809,284.778 128.5,281.5 Z"/></g>
<g><path style="opacity:1" fill="#d1d1d1" d="M 214.5,255.5 C 212.738,255.357 211.071,255.691 209.5,256.5C 205.331,265.865 201.164,275.199 197,284.5C 195.907,286.349 194.574,288.016 193,289.5C 190.703,296.761 187.37,303.428 183,309.5C 182.089,312.975 180.922,316.308 179.5,319.5C 176.375,318.321 174.375,315.987 173.5,312.5C 185.134,292.568 195.134,271.901 203.5,250.5C 207.15,252.375 210.817,254.042 214.5,255.5 Z"/></g>
<g><path style="opacity:0.29" fill="#787878" d="M 5.5,289.5 C 5.70621,292.495 5.03954,295.162 3.5,297.5C 3.56513,294.572 4.2318,291.905 5.5,289.5 Z"/></g>
<g><path style="opacity:1" fill="#bbbbbb" d="M 48.5,316.5 C 45.3864,315.909 42.8864,314.242 41,311.5C 40.5005,317.825 40.3338,324.158 40.5,330.5C 43.1667,330.5 45.8333,330.5 48.5,330.5C 48.5,330.833 48.5,331.167 48.5,331.5C 44.8333,331.5 41.1667,331.5 37.5,331.5C 37.056,324.844 36.7226,318.177 36.5,311.5C 36.3906,306.722 36.8906,302.056 38,297.5C 38.6667,296.167 39.3333,296.167 40,297.5C 43.13,303.732 45.9633,310.066 48.5,316.5 Z"/></g>
<g><path style="opacity:1" fill="#d0d0d0" d="M 120.5,321.5 C 116.023,315.589 110.856,310.255 105,305.5C 104.228,305.645 103.561,305.978 103,306.5C 102.312,310.209 100.812,313.543 98.5,316.5C 96.4301,315.097 94.7635,313.43 93.5,311.5C 94.3764,311.631 95.0431,311.298 95.5,310.5C 98.8185,304.376 101.652,298.042 104,291.5C 108.944,299.443 114.277,307.109 120,314.5C 120.497,316.81 120.663,319.143 120.5,321.5 Z"/></g>
<g><path style="opacity:0.986" fill="#c9c9c9" d="M 239.5,271.5 C 241.129,272.625 242.629,273.959 244,275.5C 252.558,291.894 256.725,309.227 256.5,327.5C 255.486,328.674 254.153,329.34 252.5,329.5C 243.533,330.383 234.533,330.716 225.5,330.5C 225.83,323.8 225.497,317.134 224.5,310.5C 222.147,312.523 219.814,314.523 217.5,316.5C 219.284,309.692 222.118,303.359 226,297.5C 226.977,295.26 227.477,292.927 227.5,290.5C 229.262,290.357 230.929,290.691 232.5,291.5C 236.783,291.244 238.117,289.244 236.5,285.5C 236.808,284.692 237.308,284.025 238,283.5C 238.972,285.305 240.139,286.972 241.5,288.5C 242.029,286.488 243.696,284.988 246.5,284C 245.107,282.829 244.273,281.329 244,279.5C 240.363,278.122 238.863,275.455 239.5,271.5 Z"/></g>
<g><path style="opacity:1" fill="#bcbcbc" d="M 165.5,294.5 C 163.355,297.433 161.188,300.433 159,303.5C 157.488,304.257 156.154,305.257 155,306.5C 155.333,308.167 155.667,309.833 156,311.5C 155,312.5 154,313.5 153,314.5C 151.442,313.655 150.442,314.321 150,316.5C 149.667,316.167 149.333,315.833 149,315.5C 148.817,318.365 148.317,321.031 147.5,323.5C 147.163,319.692 147.663,316.026 149,312.5C 154.776,306.057 159.776,299.057 164,291.5C 164.513,292.527 165.013,293.527 165.5,294.5 Z"/></g>
<g><path style="opacity:1" fill="#0f0f0f" d="M 225.5,330.5 C 222.833,330.5 220.167,330.5 217.5,330.5C 217.5,325.833 217.5,321.167 217.5,316.5C 219.814,314.523 222.147,312.523 224.5,310.5C 225.497,317.134 225.83,323.8 225.5,330.5 Z"/></g>
<g><path style="opacity:1" fill="#858586" d="M 139.5,314.5 C 138.6,319.772 138.267,325.105 138.5,330.5C 137.571,327.325 136.738,323.991 136,320.5C 135.667,320.833 135.333,321.167 135,321.5C 134.426,319.508 133.259,318.008 131.5,317C 134.202,316.16 136.868,315.327 139.5,314.5 Z"/></g>
<g><path style="opacity:0.999" fill="#0c0c0c" d="M 48.5,316.5 C 48.5,321.167 48.5,325.833 48.5,330.5C 45.8333,330.5 43.1667,330.5 40.5,330.5C 40.3338,324.158 40.5005,317.825 41,311.5C 42.8864,314.242 45.3864,315.909 48.5,316.5 Z"/></g>
<g><path style="opacity:1" fill="#c1c2c1" d="M 139.5,313.5 C 139.5,313.833 139.5,314.167 139.5,314.5C 136.868,315.327 134.202,316.16 131.5,317C 133.259,318.008 134.426,319.508 135,321.5C 135.333,321.167 135.667,320.833 136,320.5C 136.738,323.991 137.571,327.325 138.5,330.5C 141.5,330.5 144.5,330.5 147.5,330.5C 147.5,330.833 147.5,331.167 147.5,331.5C 138.5,331.5 129.5,331.5 120.5,331.5C 120.5,331.167 120.5,330.833 120.5,330.5C 123.833,330.5 127.167,330.5 130.5,330.5C 130.779,325.405 130.445,320.405 129.5,315.5C 132.865,314.96 136.198,314.294 139.5,313.5 Z"/></g>
<g><path style="opacity:0.345" fill="#868686" d="M 4.5,322.5 C 6.45155,323.785 8.11822,325.451 9.5,327.5C 6.85603,326.856 5.18936,325.189 4.5,322.5 Z"/></g>
</svg>
