<?xml version="1.0" encoding="UTF-8"?>
<!DOCTYPE svg PUBLIC "-//W3C//DTD SVG 1.1//EN" "http://www.w3.org/Graphics/SVG/1.1/DTD/svg11.dtd">
<svg xmlns="http://www.w3.org/2000/svg" version="1.1" width="272px" height="333px" style="shape-rendering:geometricPrecision; text-rendering:geometricPrecision; image-rendering:optimizeQuality; fill-rule:evenodd; clip-rule:evenodd" xmlns:xlink="http://www.w3.org/1999/xlink">
<g><path style="opacity:0.51" fill="#717171" d="M 86.5,30.5 C 86.5299,29.5028 86.0299,28.8361 85,28.5C 83.8615,28.9891 82.6948,29.3225 81.5,29.5C 83.3204,27.5516 85.6538,26.5516 88.5,26.5C 88.7709,28.3797 88.1042,29.713 86.5,30.5 Z"/></g>
<g><path style="opacity:1" fill="#f9f9f9" d="M 191.5,53.5 C 192.705,54.6719 192.705,56.0052 191.5,57.5C 183.358,66.2782 173.358,71.7782 161.5,74C 163.788,74.8221 166.122,75.4888 168.5,76C 169.38,77.3561 169.714,78.8561 169.5,80.5C 159.026,81.0963 148.692,80.2629 138.5,78C 136.028,76.022 133.361,74.522 130.5,73.5C 117.736,62.0574 103.069,59.224 86.5,65C 83.2332,66.9827 81.0666,69.816 80,73.5C 79.9396,84.5009 78.1063,95.1676 74.5,105.5C 73.1667,106.167 72.1667,107.167 71.5,108.5C 68.6118,109.803 66.7784,108.803 66,105.5C 65.1779,107.788 64.5112,110.122 64,112.5C 63.5065,110.866 63.3398,109.199 63.5,107.5C 65.6038,101.881 69.1038,97.2148 74,93.5C 75.8142,91.2849 76.3142,88.9515 75.5,86.5C 71.986,88.1167 68.3193,89.1167 64.5,89.5C 63.3786,77.577 67.3786,67.7437 76.5,60C 82.8832,56.8267 89.5499,54.4934 96.5,53C 103.24,42.714 112.74,37.5473 125,37.5C 134.35,38.4074 143.684,39.4074 153,40.5C 158.444,40.8772 163.61,39.8772 168.5,37.5C 169.614,38.723 169.781,40.0563 169,41.5C 167.333,43.8333 165.667,46.1667 164,48.5C 163.312,49.3317 163.479,49.9984 164.5,50.5C 173.073,55.6748 182.073,56.6748 191.5,53.5 Z"/></g>
<g><path style="opacity:0.898" fill="#343434" d="M 78.5,31.5 C 76.9891,33.8604 75.6558,36.3604 74.5,39C 76.7969,40.2633 77.6302,42.0966 77,44.5C 76.6667,43.8333 76.3333,43.1667 76,42.5C 73.7478,44.9266 70.9144,45.9266 67.5,45.5C 68.8775,44.7656 70.3775,44.0989 72,43.5C 72.3951,38.4346 74.5617,34.4346 78.5,31.5 Z"/></g>
<g><path style="opacity:0.894" fill="#373737" d="M 193.5,52.5 C 193.167,52.5 192.833,52.5 192.5,52.5C 191.028,49.745 191.695,47.5783 194.5,46C 194.167,45.6667 193.833,45.3333 193.5,45C 189.541,45.1582 185.541,45.3249 181.5,45.5C 186.598,44.9664 191.431,43.2997 196,40.5C 197.601,44.8979 196.768,48.8979 193.5,52.5 Z"/></g>
<g><path style="opacity:1" fill="#171717" d="M 211.5,77.5 C 209.973,77.427 208.973,78.0937 208.5,79.5C 207.791,80.404 206.791,80.7373 205.5,80.5C 195.34,81.9599 186.007,79.9599 177.5,74.5C 180.362,71.8125 183.528,69.4791 187,67.5C 190.469,69.0029 194.136,69.6696 198,69.5C 202.746,69.5613 207.246,68.8946 211.5,67.5C 213.214,66.2616 215.214,65.595 217.5,65.5C 217.611,70.6113 215.611,74.6113 211.5,77.5 Z"/></g>
<g><path style="opacity:1" fill="#d2d2d2" d="M 130.5,73.5 C 129.417,73.5394 128.417,73.8728 127.5,74.5C 126.749,73.624 126.249,72.624 126,71.5C 124.853,72.4581 123.853,72.1247 123,70.5C 122.692,71.3081 122.192,71.9747 121.5,72.5C 118.579,71.5934 115.579,71.2601 112.5,71.5C 104.502,70.213 98.3353,72.8796 94,79.5C 93.7482,88.6205 90.2482,96.1205 83.5,102C 80.6907,103.741 77.6907,104.908 74.5,105.5C 78.1063,95.1676 79.9396,84.5009 80,73.5C 81.0666,69.816 83.2332,66.9827 86.5,65C 103.069,59.224 117.736,62.0574 130.5,73.5 Z"/></g>
<g><path style="opacity:0.043" fill="#8e8e8e" d="M 211.5,77.5 C 211.027,78.9063 210.027,79.573 208.5,79.5C 208.973,78.0937 209.973,77.427 211.5,77.5 Z"/></g>
<g><path style="opacity:0.998" fill="#151515" d="M 181.5,45.5 C 185.541,45.3249 189.541,45.1582 193.5,45C 193.833,45.3333 194.167,45.6667 194.5,46C 191.695,47.5783 191.028,49.745 192.5,52.5C 191.833,52.5 191.5,52.8333 191.5,53.5C 182.073,56.6748 173.073,55.6748 164.5,50.5C 163.479,49.9984 163.312,49.3317 164,48.5C 165.667,46.1667 167.333,43.8333 169,41.5C 169.781,40.0563 169.614,38.723 168.5,37.5C 163.61,39.8772 158.444,40.8772 153,40.5C 143.684,39.4074 134.35,38.4074 125,37.5C 112.74,37.5473 103.24,42.714 96.5,53C 89.5499,54.4934 82.8832,56.8267 76.5,60C 67.3786,67.7437 63.3786,77.577 64.5,89.5C 68.3193,89.1167 71.986,88.1167 75.5,86.5C 76.3142,88.9515 75.8142,91.2849 74,93.5C 69.1038,97.2148 65.6038,101.881 63.5,107.5C 60.0807,117.24 63.0807,124.24 72.5,128.5C 74.0358,121.623 73.7025,114.957 71.5,108.5C 72.1667,107.167 73.1667,106.167 74.5,105.5C 77.6907,104.908 80.6907,103.741 83.5,102C 90.2482,96.1205 93.7482,88.6205 94,79.5C 98.3353,72.8796 104.502,70.213 112.5,71.5C 115.234,72.705 117.901,74.205 120.5,76C 125.155,82.153 130.155,87.9863 135.5,93.5C 145.632,99.0674 155.632,104.901 165.5,111C 167.833,111.667 170.167,111.667 172.5,111C 167.959,106.304 164.959,100.804 163.5,94.5C 150.855,99.0656 141.521,95.399 135.5,83.5C 135.833,83.1667 136.167,82.8333 136.5,82.5C 147.912,86.8982 158.912,86.2315 169.5,80.5C 170.539,89.0606 173.872,96.894 179.5,104C 186.421,110.288 194.421,112.121 203.5,109.5C 194.412,106.751 187.746,101.084 183.5,92.5C 183.833,92.1667 184.167,91.8333 184.5,91.5C 189.697,93.3512 195.03,93.8512 200.5,93C 202.215,89.7907 203.382,86.2907 204,82.5C 204.383,83.056 204.883,83.3893 205.5,83.5C 208.5,87.1667 211.833,90.5 215.5,93.5C 218.744,94.5168 221.744,95.8502 224.5,97.5C 222.746,101.588 219.746,104.255 215.5,105.5C 214.5,105.5 213.5,105.5 212.5,105.5C 213.111,113.278 212.444,120.778 210.5,128C 210.833,128.333 211.167,128.667 211.5,129C 209.099,132.126 209.099,135.292 211.5,138.5C 213.022,151.303 209.022,162.136 199.5,171C 196.107,173.363 192.44,175.196 188.5,176.5C 185.364,184.775 181.198,192.441 176,199.5C 175.501,204.155 175.334,208.821 175.5,213.5C 174.833,208.319 174.167,202.985 173.5,197.5C 169.17,194.378 166.003,195.378 164,200.5C 162.989,199.663 161.822,199.33 160.5,199.5C 174.451,186.257 181.951,169.924 183,150.5C 183.832,139.485 183.666,128.485 182.5,117.5C 179.72,116.805 177.053,115.805 174.5,114.5C 171.473,119.857 166.806,122.19 160.5,121.5C 157.69,118.864 154.69,116.364 151.5,114C 144.833,110.667 138.167,107.333 131.5,104C 125.274,97.0301 118.94,90.1967 112.5,83.5C 109.059,81.9937 105.892,82.3271 103,84.5C 102.484,89.2431 101.651,93.9097 100.5,98.5C 97.9169,105.417 93.2502,110.417 86.5,113.5C 85.8933,123.126 84.56,132.626 82.5,142C 82.681,159.813 87.681,175.98 97.5,190.5C 96.7784,190.918 96.2784,191.584 96,192.5C 95.6667,192.167 95.3333,191.833 95,191.5C 94.3333,198.167 93.6667,198.167 93,191.5C 90.5615,192.866 90.0615,192.366 91.5,190C 90.763,187.201 89.9297,187.034 89,189.5C 87.7567,188.664 86.5901,188.997 85.5,190.5C 86.8532,191.524 87.5198,192.857 87.5,194.5C 87.1667,194.5 86.8333,194.5 86.5,194.5C 82.1644,188.828 79.1644,182.494 77.5,175.5C 77.1788,173.952 76.1788,173.285 74.5,173.5C 65.6108,170.446 59.4441,164.446 56,155.5C 52.9309,148.205 52.7643,140.872 55.5,133.5C 56.1239,133.083 56.4573,132.416 56.5,131.5C 56.2528,130.287 55.5862,129.62 54.5,129.5C 53.7321,128.737 53.2321,127.737 53,126.5C 52.8306,120.141 52.3306,113.807 51.5,107.5C 46.192,106.519 42.8587,103.519 41.5,98.5C 47.5829,98.7144 51.7496,96.0477 54,90.5C 52.484,77.3678 56.6506,66.5345 66.5,58C 49.1048,52.9142 49.4381,48.7476 67.5,45.5C 70.9144,45.9266 73.7478,44.9266 76,42.5C 76.3333,43.1667 76.6667,43.8333 77,44.5C 77.6302,42.0966 76.7969,40.2633 74.5,39C 75.6558,36.3604 76.9891,33.8604 78.5,31.5C 78.9731,30.0937 79.9731,29.427 81.5,29.5C 82.6948,29.3225 83.8615,28.9891 85,28.5C 86.0299,28.8361 86.5299,29.5028 86.5,30.5C 85.0027,32.2897 84.336,34.4563 84.5,37C 84.5085,38.7067 84.8418,40.2067 85.5,41.5C 86.1098,42.391 86.4431,43.391 86.5,44.5C 86.5106,46.0174 87.1772,47.1841 88.5,48C 89.816,48.5281 90.4827,48.0281 90.5,46.5C 91.0558,42.77 92.7225,39.6034 95.5,37C 104.459,30.1242 114.626,26.6242 126,26.5C 138.426,28.6571 150.926,29.4905 163.5,29C 168.128,27.0191 172.461,24.5191 176.5,21.5C 177.086,21.7093 177.586,22.0426 178,22.5C 178.934,30.2082 179.101,37.8749 178.5,45.5C 179.5,45.5 180.5,45.5 181.5,45.5 Z"/></g>
<g><path style="opacity:0.329" fill="#6a6a6a" d="M 86.5,44.5 C 87.6049,45.6005 88.9382,46.2671 90.5,46.5C 90.4827,48.0281 89.816,48.5281 88.5,48C 87.1772,47.1841 86.5106,46.0174 86.5,44.5 Z"/></g>
<g><path style="opacity:0.092" fill="#9d9d9d" d="M 86.5,30.5 C 85.7564,34.1185 85.423,37.7852 85.5,41.5C 84.8418,40.2067 84.5085,38.7067 84.5,37C 84.336,34.4563 85.0027,32.2897 86.5,30.5 Z"/></g>
<g><path style="opacity:1" fill="#fcfcfc" d="M 160.5,121.5 C 162.048,126.487 162.715,131.654 162.5,137C 162.374,158.268 158.54,178.768 151,198.5C 147.774,203.196 143.274,205.362 137.5,205C 139.167,205.333 140.833,205.667 142.5,206C 142.167,206.333 141.833,206.667 141.5,207C 136.246,208.271 130.913,208.771 125.5,208.5C 114.16,205.504 104.827,199.504 97.5,190.5C 87.681,175.98 82.681,159.813 82.5,142C 84.56,132.626 85.8933,123.126 86.5,113.5C 93.2502,110.417 97.9169,105.417 100.5,98.5C 101.957,96.7582 103.124,94.7582 104,92.5C 104.494,90.8659 104.66,89.1992 104.5,87.5C 109.118,87.2695 113.118,88.7695 116.5,92C 127.608,107.297 142.275,117.13 160.5,121.5 Z"/></g>
<g><path style="opacity:1" fill="#c1c1c1" d="M 160.5,121.5 C 142.275,117.13 127.608,107.297 116.5,92C 113.118,88.7695 109.118,87.2695 104.5,87.5C 104.66,89.1992 104.494,90.8659 104,92.5C 103.124,94.7582 101.957,96.7582 100.5,98.5C 101.651,93.9097 102.484,89.2431 103,84.5C 105.892,82.3271 109.059,81.9937 112.5,83.5C 118.94,90.1967 125.274,97.0301 131.5,104C 138.167,107.333 144.833,110.667 151.5,114C 154.69,116.364 157.69,118.864 160.5,121.5 Z"/></g>
<g><path style="opacity:0.306" fill="#6f6f6f" d="M 215.5,93.5 C 218.833,93.8333 222.167,94.1667 225.5,94.5C 225.737,95.791 225.404,96.791 224.5,97.5C 221.744,95.8502 218.744,94.5168 215.5,93.5 Z"/></g>
<g><path style="opacity:1" fill="#bebebe" d="M 191.5,53.5 C 191.5,52.8333 191.833,52.5 192.5,52.5C 192.833,52.5 193.167,52.5 193.5,52.5C 193.343,53.8734 193.51,55.2068 194,56.5C 197.5,60 201,63.5 204.5,67C 206.81,67.4966 209.143,67.6633 211.5,67.5C 207.246,68.8946 202.746,69.5613 198,69.5C 194.136,69.6696 190.469,69.0029 187,67.5C 183.528,69.4791 180.362,71.8125 177.5,74.5C 186.007,79.9599 195.34,81.9599 205.5,80.5C 205.5,81.5 205.5,82.5 205.5,83.5C 204.883,83.3893 204.383,83.056 204,82.5C 203.382,86.2907 202.215,89.7907 200.5,93C 195.03,93.8512 189.697,93.3512 184.5,91.5C 184.167,91.8333 183.833,92.1667 183.5,92.5C 187.746,101.084 194.412,106.751 203.5,109.5C 194.421,112.121 186.421,110.288 179.5,104C 173.872,96.894 170.539,89.0606 169.5,80.5C 169.714,78.8561 169.38,77.3561 168.5,76C 166.122,75.4888 163.788,74.8221 161.5,74C 173.358,71.7782 183.358,66.2782 191.5,57.5C 192.705,56.0052 192.705,54.6719 191.5,53.5 Z"/></g>
<g><path style="opacity:1" fill="#b8b8b8" d="M 130.5,73.5 C 133.361,74.522 136.028,76.022 138.5,78C 148.692,80.2629 159.026,81.0963 169.5,80.5C 158.912,86.2315 147.912,86.8982 136.5,82.5C 136.167,82.8333 135.833,83.1667 135.5,83.5C 141.521,95.399 150.855,99.0656 163.5,94.5C 164.959,100.804 167.959,106.304 172.5,111C 170.167,111.667 167.833,111.667 165.5,111C 155.632,104.901 145.632,99.0674 135.5,93.5C 130.155,87.9863 125.155,82.153 120.5,76C 117.901,74.205 115.234,72.705 112.5,71.5C 115.579,71.2601 118.579,71.5934 121.5,72.5C 122.192,71.9747 122.692,71.3081 123,70.5C 123.853,72.1247 124.853,72.4581 126,71.5C 126.249,72.624 126.749,73.624 127.5,74.5C 128.417,73.8728 129.417,73.5394 130.5,73.5 Z"/></g>
<g><path style="opacity:1" fill="#d3d3d3" d="M 71.5,108.5 C 73.7025,114.957 74.0358,121.623 72.5,128.5C 63.0807,124.24 60.0807,117.24 63.5,107.5C 63.3398,109.199 63.5065,110.866 64,112.5C 64.5112,110.122 65.1779,107.788 66,105.5C 66.7784,108.803 68.6118,109.803 71.5,108.5 Z"/></g>
<g><path style="opacity:0.843" fill="#4e4e4e" d="M 215.5,105.5 C 213.741,113.571 212.908,121.905 213,130.5C 210.515,132.666 210.015,135.332 211.5,138.5C 209.099,135.292 209.099,132.126 211.5,129C 211.167,128.667 210.833,128.333 210.5,128C 212.444,120.778 213.111,113.278 212.5,105.5C 213.5,105.5 214.5,105.5 215.5,105.5 Z"/></g>
<g><path style="opacity:0.106" fill="#868686" d="M 54.5,129.5 C 55.5862,129.62 56.2528,130.287 56.5,131.5C 56.4573,132.416 56.1239,133.083 55.5,133.5C 55.5674,132.041 55.2341,130.708 54.5,129.5 Z"/></g>
<g><path style="opacity:1" fill="#b2b2b3" d="M 197.5,137.5 C 199.371,137.859 200.871,138.859 202,140.5C 202.518,147.095 200.851,153.095 197,158.5C 195.261,160.741 193.094,162.408 190.5,163.5C 190.167,163 189.833,162.5 189.5,162C 191.788,153.672 194.454,145.506 197.5,137.5 Z"/></g>
<g><path style="opacity:1" fill="#ececec" d="M 65.5,136.5 C 66.4959,136.414 67.3292,136.748 68,137.5C 69.4491,142.399 71.4491,147.065 74,151.5C 75.7814,165.187 73.1148,165.521 66,152.5C 64.2301,147.205 64.0634,141.871 65.5,136.5 Z"/></g>
<g><path style="opacity:1" fill="#bbbbbb" d="M 160.5,199.5 C 150.088,207.686 138.422,210.686 125.5,208.5C 130.913,208.771 136.246,208.271 141.5,207C 141.833,206.667 142.167,206.333 142.5,206C 140.833,205.667 139.167,205.333 137.5,205C 143.274,205.362 147.774,203.196 151,198.5C 158.54,178.768 162.374,158.268 162.5,137C 162.715,131.654 162.048,126.487 160.5,121.5C 166.806,122.19 171.473,119.857 174.5,114.5C 177.053,115.805 179.72,116.805 182.5,117.5C 183.666,128.485 183.832,139.485 183,150.5C 181.951,169.924 174.451,186.257 160.5,199.5 Z"/></g>
<g><path style="opacity:0.11" fill="#858585" d="M 74.5,173.5 C 76.1788,173.285 77.1788,173.952 77.5,175.5C 76.2905,175.068 75.2905,174.401 74.5,173.5 Z"/></g>
<g><path style="opacity:0.055" fill="#b3b3b3" d="M 86.5,194.5 C 86.8333,194.5 87.1667,194.5 87.5,194.5C 88.4584,194.953 89.2917,195.619 90,196.5C 90.8192,202.681 90.6525,208.681 89.5,214.5C 89.6661,208.824 89.4994,203.157 89,197.5C 87.955,196.627 87.1217,195.627 86.5,194.5 Z"/></g>
<g><path style="opacity:0.196" fill="#767676" d="M 63.5,233.5 C 62.9202,235.749 61.5869,237.415 59.5,238.5C 60.0798,236.251 61.4131,234.585 63.5,233.5 Z"/></g>
<g><path style="opacity:0.949" fill="#353535" d="M 218.5,245.5 C 223.29,246.204 227.623,247.871 231.5,250.5C 229.08,250.292 226.747,250.626 224.5,251.5C 222.82,249.03 220.82,247.03 218.5,245.5 Z"/></g>
<g><path style="opacity:0.204" fill="#a6a6a6" d="M 245.5,259.5 C 247.262,260.262 248.262,261.596 248.5,263.5C 246.738,262.738 245.738,261.404 245.5,259.5 Z"/></g>
<g><path style="opacity:0.161" fill="#7d7d7d" d="M 253.5,269.5 C 254.906,269.973 255.573,270.973 255.5,272.5C 254.094,272.027 253.427,271.027 253.5,269.5 Z"/></g>
<g><path style="opacity:0.863" fill="#5f5f5f" d="M 8.5,276.5 C 7.01672,281.617 5.35006,286.617 3.5,291.5C 3.79225,285.956 5.45892,280.956 8.5,276.5 Z"/></g>
<g><path style="opacity:1" fill="#949394" d="M 252.5,329.5 C 226.167,330.833 199.833,330.833 173.5,329.5C 173.833,329.5 174.167,329.5 174.5,329.5C 177.5,329.5 180.5,329.5 183.5,329.5C 184.494,320.014 184.827,310.348 184.5,300.5C 189.518,300.387 194.518,300.053 199.5,299.5C 215.213,303.286 221.046,297.286 217,281.5C 216.223,273.279 215.056,265.113 213.5,257C 213.833,256.167 214.167,255.333 214.5,254.5C 237.276,261.438 250.609,276.605 254.5,300C 253.223,310.12 247.89,317.286 238.5,321.5C 237.833,317.167 237.167,312.833 236.5,308.5C 234.201,309.635 232.034,310.968 230,312.5C 229.501,318.157 229.334,323.824 229.5,329.5C 237.167,329.5 244.833,329.5 252.5,329.5 Z"/></g>
<g><path style="opacity:0.994" fill="#cfcfcf" d="M 49.5,285.5 C 49.335,288.85 49.5017,292.183 50,295.5C 50.66,297.324 51.8267,298.657 53.5,299.5C 63.0882,300.09 72.7549,301.09 82.5,302.5C 82.1734,311.682 82.5067,320.682 83.5,329.5C 86.5,329.5 89.5,329.5 92.5,329.5C 92.8333,329.5 93.1667,329.5 93.5,329.5C 67.8333,330.833 42.1667,330.833 16.5,329.5C 23.1667,329.5 29.8333,329.5 36.5,329.5C 37.3255,325.018 37.8255,320.351 38,315.5C 38.3176,313.939 39.1509,312.772 40.5,312C 39.5138,309.672 37.5138,307.672 34.5,306C 34.8333,305.667 35.1667,305.333 35.5,305C 33.282,301.016 31.4487,296.85 30,292.5C 29.7645,294.119 28.9311,295.119 27.5,295.5C 28.0007,292.845 29.3341,290.678 31.5,289C 37.3154,286.954 43.3154,285.788 49.5,285.5 Z"/></g>
<g><path style="opacity:1" fill="#131313" d="M 97.5,190.5 C 104.827,199.504 114.16,205.504 125.5,208.5C 138.422,210.686 150.088,207.686 160.5,199.5C 161.822,199.33 162.989,199.663 164,200.5C 166.003,195.378 169.17,194.378 173.5,197.5C 174.167,202.985 174.833,208.319 175.5,213.5C 190,220.156 202,229.989 211.5,243C 214.104,243.39 216.438,244.224 218.5,245.5C 220.82,247.03 222.82,249.03 224.5,251.5C 226.747,250.626 229.08,250.292 231.5,250.5C 236.686,252.685 241.353,255.685 245.5,259.5C 245.738,261.404 246.738,262.738 248.5,263.5C 250.914,264.911 252.581,266.911 253.5,269.5C 253.427,271.027 254.094,272.027 255.5,272.5C 259.802,278.448 262.469,285.115 263.5,292.5C 263.171,295.228 263.837,297.562 265.5,299.5C 266.122,302.415 266.456,305.415 266.5,308.5C 266.706,312.469 266.039,316.135 264.5,319.5C 263.603,320.598 262.77,320.598 262,319.5C 260.812,320.563 260.312,321.897 260.5,323.5C 259.5,323.5 258.5,323.5 257.5,323.5C 257.169,325.322 256.502,326.989 255.5,328.5C 254.791,329.404 253.791,329.737 252.5,329.5C 244.833,329.5 237.167,329.5 229.5,329.5C 229.334,323.824 229.501,318.157 230,312.5C 232.034,310.968 234.201,309.635 236.5,308.5C 237.167,312.833 237.833,317.167 238.5,321.5C 247.89,317.286 253.223,310.12 254.5,300C 250.609,276.605 237.276,261.438 214.5,254.5C 214.167,255.333 213.833,256.167 213.5,257C 215.056,265.113 216.223,273.279 217,281.5C 221.046,297.286 215.213,303.286 199.5,299.5C 194.384,298.194 189.051,297.527 183.5,297.5C 183.5,308.167 183.5,318.833 183.5,329.5C 180.5,329.5 177.5,329.5 174.5,329.5C 174.825,321.981 174.492,314.648 173.5,307.5C 173.207,295.151 173.207,282.817 173.5,270.5C 174.083,265.223 173.083,264.557 170.5,268.5C 154.58,282.478 136.247,286.644 115.5,281C 109.643,278.577 104.31,275.411 99.5,271.5C 99.6495,270.448 99.4828,269.448 99,268.5C 97.0126,267.782 95.1792,266.782 93.5,265.5C 92.5003,286.823 92.167,308.156 92.5,329.5C 89.5,329.5 86.5,329.5 83.5,329.5C 83.5,318.833 83.5,308.167 83.5,297.5C 73.512,298.332 63.512,298.998 53.5,299.5C 51.8267,298.657 50.66,297.324 50,295.5C 49.5017,292.183 49.335,288.85 49.5,285.5C 49.8126,275.017 51.1459,264.684 53.5,254.5C 27.0883,260.278 13.0883,276.944 11.5,304.5C 10.8896,310.17 12.5562,315.004 16.5,319C 18.0249,320.009 19.6916,320.509 21.5,320.5C 23.6074,321.468 25.9407,321.802 28.5,321.5C 28.8693,317.232 29.8693,313.232 31.5,309.5C 32.4787,311.145 33.812,312.479 35.5,313.5C 36.4948,318.792 36.8282,324.125 36.5,329.5C 29.8333,329.5 23.1667,329.5 16.5,329.5C 13.509,329.834 11.1757,328.834 9.5,326.5C 8.11822,324.451 6.45155,322.785 4.5,321.5C 0.835358,311.552 0.502025,301.552 3.5,291.5C 5.35006,286.617 7.01672,281.617 8.5,276.5C 13.9873,263.513 23.3206,254.347 36.5,249C 42.3634,246.601 48.3634,244.601 54.5,243C 56.0375,241.293 57.7041,239.793 59.5,238.5C 61.5869,237.415 62.9202,235.749 63.5,233.5C 70.4784,224.855 79.145,218.521 89.5,214.5C 90.6525,208.681 90.8192,202.681 90,196.5C 89.2917,195.619 88.4584,194.953 87.5,194.5C 87.5198,192.857 86.8532,191.524 85.5,190.5C 86.5901,188.997 87.7567,188.664 89,189.5C 89.9297,187.034 90.763,187.201 91.5,190C 90.0615,192.366 90.5615,192.866 93,191.5C 93.6667,198.167 94.3333,198.167 95,191.5C 95.3333,191.833 95.6667,192.167 96,192.5C 96.2784,191.584 96.7784,190.918 97.5,190.5 Z"/></g>
<g><path style="opacity:0.14" fill="#f2f2f2" d="M 93.5,286.5 C 94.4511,287.919 94.7845,289.585 94.5,291.5C 113.674,291.17 132.674,291.503 151.5,292.5C 132.167,292.5 112.833,292.5 93.5,292.5C 93.5,290.5 93.5,288.5 93.5,286.5 Z"/></g>
<g><path style="opacity:0.016" fill="#bababa" d="M 173.5,270.5 C 172.778,269.449 171.778,268.782 170.5,268.5C 173.083,264.557 174.083,265.223 173.5,270.5 Z"/></g>
<g><path style="opacity:1" fill="#f7f7f7" d="M 49.5,285.5 C 43.3154,285.788 37.3154,286.954 31.5,289C 29.3341,290.678 28.0007,292.845 27.5,295.5C 24.3823,303.441 23.7156,311.608 25.5,320C 24.2068,320.49 22.8734,320.657 21.5,320.5C 19.6916,320.509 18.0249,320.009 16.5,319C 12.5562,315.004 10.8896,310.17 11.5,304.5C 13.0883,276.944 27.0883,260.278 53.5,254.5C 51.1459,264.684 49.8126,275.017 49.5,285.5 Z"/></g>
<g><path style="opacity:1" fill="#c8c8c9" d="M 84.5,228.5 C 85.3764,228.369 86.0431,228.702 86.5,229.5C 85.3657,232.07 84.5323,234.736 84,237.5C 83.6667,253.833 83.3333,270.167 83,286.5C 75.3245,288.409 67.4912,289.409 59.5,289.5C 59.8575,275.307 61.6908,261.307 65,247.5C 67.0751,243.421 69.9084,239.921 73.5,237C 77.2355,234.147 80.9021,231.313 84.5,228.5 Z"/></g>
<g><path style="opacity:1" fill="#b5b5b5" d="M 127.5,272.5 C 130.167,272.5 132.833,272.5 135.5,272.5C 128.266,255.711 118.266,240.711 105.5,227.5C 103.807,226.772 102.307,225.772 101,224.5C 100.617,225.056 100.117,225.389 99.5,225.5C 99.3338,219.158 99.5005,212.825 100,206.5C 115.525,219.363 131.025,232.196 146.5,245C 147.833,245.667 149.167,245.667 150.5,245C 156.167,241.5 161.833,238 167.5,234.5C 168.455,238.358 170.289,241.691 173,244.5C 173.667,246.167 173.667,247.833 173,249.5C 162.628,266.935 147.462,274.602 127.5,272.5 Z"/></g>
<g><path style="opacity:1" fill="#939293" d="M 181.5,229.5 C 189.91,233.94 196.41,240.273 201,248.5C 205.131,261.842 206.964,275.508 206.5,289.5C 198.841,288.751 191.174,288.084 183.5,287.5C 183.667,270.497 183.5,253.497 183,236.5C 182.56,234.134 182.06,231.801 181.5,229.5 Z"/></g>
<g><path style="opacity:1" fill="#f8f8f8" d="M 127.5,272.5 C 114.23,271.284 103.73,265.284 96,254.5C 94.767,252.134 93.9336,249.634 93.5,247C 94.5415,244.277 96.0415,241.777 98,239.5C 98.994,234.882 99.494,230.215 99.5,225.5C 100.117,225.389 100.617,225.056 101,224.5C 102.307,225.772 103.807,226.772 105.5,227.5C 118.266,240.711 128.266,255.711 135.5,272.5C 132.833,272.5 130.167,272.5 127.5,272.5 Z"/></g>
<g><path style="opacity:0.984" fill="#919191" d="M 93.5,292.5 C 112.833,292.5 132.167,292.5 151.5,292.5C 153.484,292.383 155.15,293.05 156.5,294.5C 157.199,297.31 158.199,299.977 159.5,302.5C 137.5,302.5 115.5,302.5 93.5,302.5C 93.5,299.167 93.5,295.833 93.5,292.5 Z"/></g>
<g><path style="opacity:0.561" fill="#5c5c5c" d="M 263.5,292.5 C 264.612,294.599 265.279,296.933 265.5,299.5C 263.837,297.562 263.171,295.228 263.5,292.5 Z"/></g>
<g><path style="opacity:1" fill="#5e5e5e" d="M 199.5,299.5 C 194.518,300.053 189.518,300.387 184.5,300.5C 184.827,310.348 184.494,320.014 183.5,329.5C 183.5,318.833 183.5,308.167 183.5,297.5C 189.051,297.527 194.384,298.194 199.5,299.5 Z"/></g>
<g><path style="opacity:1" fill="#8f8f8f" d="M 83.5,329.5 C 82.5067,320.682 82.1734,311.682 82.5,302.5C 72.7549,301.09 63.0882,300.09 53.5,299.5C 63.512,298.998 73.512,298.332 83.5,297.5C 83.5,308.167 83.5,318.833 83.5,329.5 Z"/></g>
<g><path style="opacity:1" fill="#b8b8b8" d="M 36.5,329.5 C 36.8282,324.125 36.4948,318.792 35.5,313.5C 33.812,312.479 32.4787,311.145 31.5,309.5C 30.828,308.733 29.9947,308.066 29,307.5C 28.5008,312.155 28.3342,316.821 28.5,321.5C 25.9407,321.802 23.6074,321.468 21.5,320.5C 22.8734,320.657 24.2068,320.49 25.5,320C 23.7156,311.608 24.3823,303.441 27.5,295.5C 28.9311,295.119 29.7645,294.119 30,292.5C 31.4487,296.85 33.282,301.016 35.5,305C 35.1667,305.333 34.8333,305.667 34.5,306C 37.5138,307.672 39.5138,309.672 40.5,312C 39.1509,312.772 38.3176,313.939 38,315.5C 37.8255,320.351 37.3255,325.018 36.5,329.5 Z"/></g>
<g><path style="opacity:1" fill="#323232" d="M 99.5,271.5 C 97.825,269.998 95.9917,268.665 94,267.5C 93.5005,273.825 93.3338,280.158 93.5,286.5C 93.5,288.5 93.5,290.5 93.5,292.5C 93.5,295.833 93.5,299.167 93.5,302.5C 93.5,305.833 93.5,309.167 93.5,312.5C 93.5,316.167 93.5,319.833 93.5,323.5C 93.7583,325.81 93.7583,327.81 93.5,329.5C 93.1667,329.5 92.8333,329.5 92.5,329.5C 92.167,308.156 92.5003,286.823 93.5,265.5C 95.1792,266.782 97.0126,267.782 99,268.5C 99.4828,269.448 99.6495,270.448 99.5,271.5 Z"/></g>
<g><path style="opacity:0.987" fill="#fcfcfc" d="M 93.5,302.5 C 115.5,302.5 137.5,302.5 159.5,302.5C 160.976,304.5 162.809,306.167 165,307.5C 166.094,309.078 166.928,310.745 167.5,312.5C 142.833,312.5 118.167,312.5 93.5,312.5C 93.5,309.167 93.5,305.833 93.5,302.5 Z"/></g>
<g><path style="opacity:0.997" fill="#949494" d="M 93.5,312.5 C 118.167,312.5 142.833,312.5 167.5,312.5C 168.701,315.405 168.534,318.405 167,321.5C 165.601,322.227 164.101,322.727 162.5,323C 139.22,323.362 116.22,323.529 93.5,323.5C 93.5,319.833 93.5,316.167 93.5,312.5 Z"/></g>
<g><path style="opacity:0.452" fill="#4d4d4d" d="M 173.5,307.5 C 174.492,314.648 174.825,321.981 174.5,329.5C 174.167,329.5 173.833,329.5 173.5,329.5C 173.351,322.276 173.351,314.943 173.5,307.5 Z"/></g>
<g><path style="opacity:1" fill="#737373" d="M 31.5,309.5 C 29.8693,313.232 28.8693,317.232 28.5,321.5C 28.3342,316.821 28.5008,312.155 29,307.5C 29.9947,308.066 30.828,308.733 31.5,309.5 Z"/></g>
<g><path style="opacity:0.553" fill="#828282" d="M 4.5,321.5 C 6.45155,322.785 8.11822,324.451 9.5,326.5C 6.85603,325.856 5.18936,324.189 4.5,321.5 Z"/></g>
<g><path style="opacity:0.889" fill="#343434" d="M 264.5,319.5 C 263.167,324.167 260.167,327.167 255.5,328.5C 256.502,326.989 257.169,325.322 257.5,323.5C 258.5,323.5 259.5,323.5 260.5,323.5C 260.312,321.897 260.812,320.563 262,319.5C 262.77,320.598 263.603,320.598 264.5,319.5 Z"/></g>
</svg>
